<?xml version="1.0" encoding="UTF-8" standalone="no"?>
<svg width="154.164mm" height="65.6167mm"
 viewBox="-10 -10 437 186"
 xmlns="http://www.w3.org/2000/svg" xmlns:xlink="http://www.w3.org/1999/xlink"  version="1.2" baseProfile="tiny">
<title>dec_8b10b</title>
<desc>Block converted from VHDL to svg with entity-block.</desc>
<defs>
<linearGradient gradientUnits="userSpaceOnUse" x1="39" y1="0" x2="365" y2="0" id="gradient1">
    <stop offset="0" stop-color="#014040" stop-opacity="1" />
    <stop offset="1" stop-color="#7f7f7f" stop-opacity="1" />
</linearGradient>
</defs>
<g fill="none" stroke="black" stroke-width="1" fill-rule="evenodd" stroke-linecap="square" stroke-linejoin="bevel" >

<g fill="none" stroke="#000000" stroke-opacity="1" stroke-width="1" stroke-linecap="square" stroke-linejoin="bevel" transform="matrix(1,0,0,1,0,0)"
font-family="Sans Serif" font-size="10" font-weight="400" font-style="normal" 
>
</g>

<g fill="none" stroke="#008000" stroke-opacity="1" stroke-width="1" stroke-linecap="square" stroke-linejoin="bevel" transform="matrix(1,0,0,1,0,0)"
font-family="Sans Serif" font-size="8" font-weight="400" font-style="normal" 
>
</g>

<g fill="none" stroke="#000080" stroke-opacity="1" stroke-width="1" stroke-linecap="square" stroke-linejoin="bevel" transform="matrix(1,0,0,1,0,0)"
font-family="Sans Serif" font-size="10" font-weight="400" font-style="normal" 
>
</g>

<g fill="none" stroke="#000000" stroke-opacity="1" stroke-width="1" stroke-linecap="square" stroke-linejoin="bevel" transform="matrix(1,0,0,1,0,0)"
font-family="Sans Serif" font-size="10" font-weight="400" font-style="normal" 
>
</g>

<g fill="none" stroke="#008000" stroke-opacity="1" stroke-width="1" stroke-linecap="square" stroke-linejoin="bevel" transform="matrix(1,0,0,1,0,0)"
font-family="Sans Serif" font-size="8" font-weight="400" font-style="normal" 
>
</g>

<g fill="none" stroke="#000080" stroke-opacity="1" stroke-width="1" stroke-linecap="square" stroke-linejoin="bevel" transform="matrix(1,0,0,1,0,0)"
font-family="Sans Serif" font-size="10" font-weight="400" font-style="normal" 
>
</g>

<g fill="none" stroke="#000000" stroke-opacity="1" stroke-width="1" stroke-linecap="square" stroke-linejoin="bevel" transform="matrix(1,0,0,1,0,0)"
font-family="Sans Serif" font-size="10" font-weight="400" font-style="normal" 
>
</g>

<g fill="none" stroke="#008000" stroke-opacity="1" stroke-width="1" stroke-linecap="square" stroke-linejoin="bevel" transform="matrix(1,0,0,1,0,0)"
font-family="Sans Serif" font-size="8" font-weight="400" font-style="normal" 
>
</g>

<g fill="none" stroke="#000080" stroke-opacity="1" stroke-width="1" stroke-linecap="square" stroke-linejoin="bevel" transform="matrix(1,0,0,1,0,0)"
font-family="Sans Serif" font-size="10" font-weight="400" font-style="normal" 
>
</g>

<g fill="none" stroke="#000000" stroke-opacity="1" stroke-width="1" stroke-linecap="square" stroke-linejoin="bevel" transform="matrix(1,0,0,1,0,0)"
font-family="Sans Serif" font-size="10" font-weight="400" font-style="normal" 
>
</g>

<g fill="none" stroke="#008000" stroke-opacity="1" stroke-width="1" stroke-linecap="square" stroke-linejoin="bevel" transform="matrix(1,0,0,1,0,0)"
font-family="Sans Serif" font-size="8" font-weight="400" font-style="normal" 
>
</g>

<g fill="none" stroke="#000080" stroke-opacity="1" stroke-width="1" stroke-linecap="square" stroke-linejoin="bevel" transform="matrix(1,0,0,1,0,0)"
font-family="Sans Serif" font-size="10" font-weight="400" font-style="normal" 
>
</g>

<g fill="none" stroke="#000000" stroke-opacity="1" stroke-width="1" stroke-linecap="square" stroke-linejoin="bevel" transform="matrix(1,0,0,1,0,0)"
font-family="Sans Serif" font-size="10" font-weight="400" font-style="normal" 
>
</g>

<g fill="none" stroke="#008000" stroke-opacity="1" stroke-width="1" stroke-linecap="square" stroke-linejoin="bevel" transform="matrix(1,0,0,1,0,0)"
font-family="Sans Serif" font-size="8" font-weight="400" font-style="normal" 
>
</g>

<g fill="none" stroke="#000080" stroke-opacity="1" stroke-width="1" stroke-linecap="square" stroke-linejoin="bevel" transform="matrix(1,0,0,1,0,0)"
font-family="Sans Serif" font-size="10" font-weight="400" font-style="normal" 
>
</g>

<g fill="none" stroke="#000000" stroke-opacity="1" stroke-width="1" stroke-linecap="square" stroke-linejoin="bevel" transform="matrix(1,0,0,1,0,0)"
font-family="Sans Serif" font-size="10" font-weight="400" font-style="normal" 
>
</g>

<g fill="none" stroke="#008000" stroke-opacity="1" stroke-width="1" stroke-linecap="square" stroke-linejoin="bevel" transform="matrix(1,0,0,1,0,0)"
font-family="Sans Serif" font-size="8" font-weight="400" font-style="normal" 
>
</g>

<g fill="none" stroke="#000080" stroke-opacity="1" stroke-width="1" stroke-linecap="square" stroke-linejoin="bevel" transform="matrix(1,0,0,1,0,0)"
font-family="Sans Serif" font-size="10" font-weight="400" font-style="normal" 
>
</g>

<g fill="none" stroke="#000000" stroke-opacity="1" stroke-width="1" stroke-linecap="square" stroke-linejoin="bevel" transform="matrix(1,0,0,1,0,0)"
font-family="Sans Serif" font-size="10" font-weight="400" font-style="normal" 
>
</g>

<g fill="none" stroke="#008000" stroke-opacity="1" stroke-width="1" stroke-linecap="square" stroke-linejoin="bevel" transform="matrix(1,0,0,1,0,0)"
font-family="Sans Serif" font-size="8" font-weight="400" font-style="normal" 
>
</g>

<g fill="none" stroke="#000080" stroke-opacity="1" stroke-width="1" stroke-linecap="square" stroke-linejoin="bevel" transform="matrix(1,0,0,1,0,0)"
font-family="Sans Serif" font-size="10" font-weight="400" font-style="normal" 
>
</g>

<g fill="none" stroke="#000000" stroke-opacity="1" stroke-width="1" stroke-linecap="square" stroke-linejoin="bevel" transform="matrix(1,0,0,1,0,0)"
font-family="Sans Serif" font-size="10" font-weight="400" font-style="normal" 
>
</g>

<g fill="none" stroke="#008000" stroke-opacity="1" stroke-width="1" stroke-linecap="square" stroke-linejoin="bevel" transform="matrix(1,0,0,1,0,0)"
font-family="Sans Serif" font-size="8" font-weight="400" font-style="normal" 
>
</g>

<g fill="none" stroke="#000080" stroke-opacity="1" stroke-width="1" stroke-linecap="square" stroke-linejoin="bevel" transform="matrix(1,0,0,1,0,0)"
font-family="Sans Serif" font-size="10" font-weight="400" font-style="normal" 
>
</g>

<g fill="none" stroke="#ffffff" stroke-opacity="1" stroke-width="1" stroke-linecap="square" stroke-linejoin="bevel" transform="matrix(1,0,0,1,0,0)"
font-family="Sans Serif" font-size="12" font-weight="400" font-style="normal" 
>
</g>

<g fill="#808080" fill-opacity="1" stroke="none" transform="matrix(1,0,0,1,0,0)"
font-family="Sans Serif" font-size="12" font-weight="400" font-style="normal" 
>
<path vector-effect="none" fill-rule="evenodd" d="M44,13 C44,7.47715 48.4772,3 54,3 L360,3 C365.523,3 370,7.47715 370,13 L370,159 C370,164.523 365.523,169 360,169 L54,169 C48.4772,169 44,164.523 44,159 L44,13"/>
</g>

<g fill="#fffff3" fill-opacity="1" stroke="none" transform="matrix(1,0,0,1,0,0)"
font-family="Sans Serif" font-size="12" font-weight="400" font-style="normal" 
>
<path vector-effect="none" fill-rule="evenodd" d="M39,10 C39,4.47715 43.4772,0 49,0 L355,0 C360.523,0 365,4.47715 365,10 L365,156 C365,161.523 360.523,166 355,166 L49,166 C43.4772,166 39,161.523 39,156 L39,10"/>
</g>

<g fill="none" stroke="#235676" stroke-opacity="1" stroke-width="2" stroke-linecap="round" stroke-linejoin="round" transform="matrix(1,0,0,1,0,0)"
font-family="Sans Serif" font-size="12" font-weight="400" font-style="normal" 
>
<path vector-effect="none" fill-rule="evenodd" d="M39,10 C39,4.47715 43.4772,0 49,0 L355,0 C360.523,0 365,4.47715 365,10 L365,156 C365,161.523 360.523,166 355,166 L49,166 C43.4772,166 39,161.523 39,156 L39,10"/>
</g>

<g fill="url(#gradient1)" stroke="none" transform="matrix(1,0,0,1,0,0)"
font-family="Sans Serif" font-size="12" font-weight="400" font-style="normal" 
>
<path vector-effect="none" fill-rule="evenodd" d="M49,0 C43.4772,0 39,4.47715 39,10 L39,14 L365,14 L365,10 C365,4.47715 360.523,0 355,0 L49,0"/>
</g>

<g fill="none" stroke="#235676" stroke-opacity="1" stroke-width="2" stroke-linecap="round" stroke-linejoin="round" transform="matrix(1,0,0,1,0,0)"
font-family="Sans Serif" font-size="12" font-weight="400" font-style="normal" 
>
<path vector-effect="none" fill-rule="evenodd" d="M49,0 C43.4772,0 39,4.47715 39,10 L39,14 L365,14 L365,10 C365,4.47715 360.523,0 355,0 L49,0"/>
</g>

<g fill="none" stroke="#ffffff" stroke-opacity="1" stroke-width="1" stroke-linecap="square" stroke-linejoin="bevel" transform="matrix(1,0,0,1,0,0)"
font-family="Sans Serif" font-size="12" font-weight="400" font-style="normal" 
>
<text fill="#ffffff" fill-opacity="1" stroke="none" xml:space="preserve" x="171" y="11" font-family="Sans Serif" font-size="12" font-weight="400" font-style="normal" 
 >dec_8b10b</text>
</g>

<g fill="none" stroke="#000000" stroke-opacity="1" stroke-width="1" stroke-linecap="square" stroke-linejoin="bevel" transform="matrix(1,0,0,1,0,0)"
font-family="Sans Serif" font-size="10" font-weight="400" font-style="normal" 
>
<text fill="#000000" fill-opacity="1" stroke="none" xml:space="preserve" x="0" y="29" font-family="Sans Serif" font-size="10" font-weight="400" font-style="normal" 
 >datain</text>
</g>

<g fill="none" stroke="#008000" stroke-opacity="1" stroke-width="1" stroke-linecap="square" stroke-linejoin="bevel" transform="matrix(1,0,0,1,0,0)"
font-family="Sans Serif" font-size="8" font-weight="400" font-style="normal" 
>
<text fill="#008000" fill-opacity="1" stroke="none" xml:space="preserve" x="49" y="35" font-family="Sans Serif" font-size="8" font-weight="400" font-style="normal" 
 >10b data input</text>
</g>

<g fill="none" stroke="#000080" stroke-opacity="1" stroke-width="1" stroke-linecap="square" stroke-linejoin="bevel" transform="matrix(1,0,0,1,0,0)"
font-family="Sans Serif" font-size="10" font-weight="400" font-style="normal" 
>
<text fill="#000080" fill-opacity="1" stroke="none" xml:space="preserve" x="49" y="24" font-family="Sans Serif" font-size="10" font-weight="400" font-style="normal" 
 >std_logic_vector(9 downto 0)</text>
</g>

<g fill="none" stroke="#235676" stroke-opacity="1" stroke-width="2" stroke-linecap="round" stroke-linejoin="round" transform="matrix(1,0,0,1,0,0)"
font-family="Sans Serif" font-size="10" font-weight="400" font-style="normal" 
>
<path vector-effect="none" fill-rule="evenodd" d="M34,20 L34,30 L44,25 L34,20"/>
</g>

<g fill="#235676" fill-opacity="1" stroke="none" transform="matrix(1,0,0,1,0,0)"
font-family="Sans Serif" font-size="10" font-weight="400" font-style="normal" 
>
<path vector-effect="none" fill-rule="evenodd" d="M34,20 L34,30 L44,25 L34,20"/>
</g>

<g fill="none" stroke="#000000" stroke-opacity="1" stroke-width="1" stroke-linecap="square" stroke-linejoin="bevel" transform="matrix(1,0,0,1,0,0)"
font-family="Sans Serif" font-size="10" font-weight="400" font-style="normal" 
>
<text fill="#000000" fill-opacity="1" stroke="none" xml:space="preserve" x="11" y="52" font-family="Sans Serif" font-size="10" font-weight="400" font-style="normal" 
 >ena</text>
</g>

<g fill="none" stroke="#008000" stroke-opacity="1" stroke-width="1" stroke-linecap="square" stroke-linejoin="bevel" transform="matrix(1,0,0,1,0,0)"
font-family="Sans Serif" font-size="8" font-weight="400" font-style="normal" 
>
<text fill="#008000" fill-opacity="1" stroke="none" xml:space="preserve" x="49" y="58" font-family="Sans Serif" font-size="8" font-weight="400" font-style="normal" 
 >Enable registers for output and disparity</text>
</g>

<g fill="none" stroke="#000080" stroke-opacity="1" stroke-width="1" stroke-linecap="square" stroke-linejoin="bevel" transform="matrix(1,0,0,1,0,0)"
font-family="Sans Serif" font-size="10" font-weight="400" font-style="normal" 
>
<text fill="#000080" fill-opacity="1" stroke="none" xml:space="preserve" x="49" y="47" font-family="Sans Serif" font-size="10" font-weight="400" font-style="normal" 
 >std_logic</text>
</g>

<g fill="none" stroke="#235676" stroke-opacity="1" stroke-width="2" stroke-linecap="round" stroke-linejoin="round" transform="matrix(1,0,0,1,0,0)"
font-family="Sans Serif" font-size="10" font-weight="400" font-style="normal" 
>
<path vector-effect="none" fill-rule="evenodd" d="M34,43 L34,53 L44,48 L34,43"/>
</g>

<g fill="#235676" fill-opacity="1" stroke="none" transform="matrix(1,0,0,1,0,0)"
font-family="Sans Serif" font-size="10" font-weight="400" font-style="normal" 
>
<path vector-effect="none" fill-rule="evenodd" d="M34,43 L34,53 L44,48 L34,43"/>
</g>

<g fill="none" stroke="#000000" stroke-opacity="1" stroke-width="1" stroke-linecap="square" stroke-linejoin="bevel" transform="matrix(1,0,0,1,0,0)"
font-family="Sans Serif" font-size="10" font-weight="400" font-style="normal" 
>
<text fill="#000000" fill-opacity="1" stroke="none" xml:space="preserve" x="6" y="98" font-family="Sans Serif" font-size="10" font-weight="400" font-style="normal" 
 >reset</text>
</g>

<g fill="none" stroke="#008000" stroke-opacity="1" stroke-width="1" stroke-linecap="square" stroke-linejoin="bevel" transform="matrix(1,0,0,1,0,0)"
font-family="Sans Serif" font-size="8" font-weight="400" font-style="normal" 
>
<text fill="#008000" fill-opacity="1" stroke="none" xml:space="preserve" x="49" y="104" font-family="Sans Serif" font-size="8" font-weight="400" font-style="normal" 
 >Active high reset</text>
</g>

<g fill="none" stroke="#000080" stroke-opacity="1" stroke-width="1" stroke-linecap="square" stroke-linejoin="bevel" transform="matrix(1,0,0,1,0,0)"
font-family="Sans Serif" font-size="10" font-weight="400" font-style="normal" 
>
<text fill="#000080" fill-opacity="1" stroke="none" xml:space="preserve" x="49" y="93" font-family="Sans Serif" font-size="10" font-weight="400" font-style="normal" 
 >std_logic</text>
</g>

<g fill="none" stroke="#235676" stroke-opacity="1" stroke-width="2" stroke-linecap="round" stroke-linejoin="round" transform="matrix(1,0,0,1,0,0)"
font-family="Sans Serif" font-size="10" font-weight="400" font-style="normal" 
>
<path vector-effect="none" fill-rule="evenodd" d="M34,89 L34,99 L44,94 L34,89"/>
</g>

<g fill="#235676" fill-opacity="1" stroke="none" transform="matrix(1,0,0,1,0,0)"
font-family="Sans Serif" font-size="10" font-weight="400" font-style="normal" 
>
<path vector-effect="none" fill-rule="evenodd" d="M34,89 L34,99 L44,94 L34,89"/>
</g>

<g fill="none" stroke="#000000" stroke-opacity="1" stroke-width="1" stroke-linecap="square" stroke-linejoin="bevel" transform="matrix(1,0,0,1,0,0)"
font-family="Sans Serif" font-size="10" font-weight="400" font-style="normal" 
>
<text fill="#000000" fill-opacity="1" stroke="none" xml:space="preserve" x="17" y="144" font-family="Sans Serif" font-size="10" font-weight="400" font-style="normal" 
 >clk</text>
</g>

<g fill="none" stroke="#008000" stroke-opacity="1" stroke-width="1" stroke-linecap="square" stroke-linejoin="bevel" transform="matrix(1,0,0,1,0,0)"
font-family="Sans Serif" font-size="8" font-weight="400" font-style="normal" 
>
<text fill="#008000" fill-opacity="1" stroke="none" xml:space="preserve" x="49" y="150" font-family="Sans Serif" font-size="8" font-weight="400" font-style="normal" 
 >Clock to register output and disparity</text>
</g>

<g fill="none" stroke="#000080" stroke-opacity="1" stroke-width="1" stroke-linecap="square" stroke-linejoin="bevel" transform="matrix(1,0,0,1,0,0)"
font-family="Sans Serif" font-size="10" font-weight="400" font-style="normal" 
>
<text fill="#000080" fill-opacity="1" stroke="none" xml:space="preserve" x="49" y="139" font-family="Sans Serif" font-size="10" font-weight="400" font-style="normal" 
 >std_logic</text>
</g>

<g fill="none" stroke="#235676" stroke-opacity="1" stroke-width="2" stroke-linecap="round" stroke-linejoin="round" transform="matrix(1,0,0,1,0,0)"
font-family="Sans Serif" font-size="10" font-weight="400" font-style="normal" 
>
<path vector-effect="none" fill-rule="evenodd" d="M34,135 L34,145 L44,140 L34,135"/>
</g>

<g fill="#235676" fill-opacity="1" stroke="none" transform="matrix(1,0,0,1,0,0)"
font-family="Sans Serif" font-size="10" font-weight="400" font-style="normal" 
>
<path vector-effect="none" fill-rule="evenodd" d="M34,135 L34,145 L44,140 L34,135"/>
</g>

<g fill="none" stroke="#000000" stroke-opacity="1" stroke-width="1" stroke-linecap="square" stroke-linejoin="bevel" transform="matrix(1,0,0,1,0,0)"
font-family="Sans Serif" font-size="10" font-weight="400" font-style="normal" 
>
<text fill="#000000" fill-opacity="1" stroke="none" xml:space="preserve" x="375" y="29" font-family="Sans Serif" font-size="10" font-weight="400" font-style="normal" 
 >ko</text>
</g>

<g fill="none" stroke="#008000" stroke-opacity="1" stroke-width="1" stroke-linecap="square" stroke-linejoin="bevel" transform="matrix(1,0,0,1,0,0)"
font-family="Sans Serif" font-size="8" font-weight="400" font-style="normal" 
>
<text fill="#008000" fill-opacity="1" stroke="none" xml:space="preserve" x="277" y="35" font-family="Sans Serif" font-size="8" font-weight="400" font-style="normal" 
 >Active high K indication</text>
</g>

<g fill="none" stroke="#000080" stroke-opacity="1" stroke-width="1" stroke-linecap="square" stroke-linejoin="bevel" transform="matrix(1,0,0,1,0,0)"
font-family="Sans Serif" font-size="10" font-weight="400" font-style="normal" 
>
<text fill="#000080" fill-opacity="1" stroke="none" xml:space="preserve" x="314" y="24" font-family="Sans Serif" font-size="10" font-weight="400" font-style="normal" 
 >std_logic</text>
</g>

<g fill="none" stroke="#235676" stroke-opacity="1" stroke-width="2" stroke-linecap="round" stroke-linejoin="round" transform="matrix(1,0,0,1,0,0)"
font-family="Sans Serif" font-size="10" font-weight="400" font-style="normal" 
>
<path vector-effect="none" fill-rule="evenodd" d="M360,20 L360,30 L370,25 L360,20"/>
</g>

<g fill="#235676" fill-opacity="1" stroke="none" transform="matrix(1,0,0,1,0,0)"
font-family="Sans Serif" font-size="10" font-weight="400" font-style="normal" 
>
<path vector-effect="none" fill-rule="evenodd" d="M360,20 L360,30 L370,25 L360,20"/>
</g>

<g fill="none" stroke="#000000" stroke-opacity="1" stroke-width="1" stroke-linecap="square" stroke-linejoin="bevel" transform="matrix(1,0,0,1,0,0)"
font-family="Sans Serif" font-size="10" font-weight="400" font-style="normal" 
>
<text fill="#000000" fill-opacity="1" stroke="none" xml:space="preserve" x="375" y="52" font-family="Sans Serif" font-size="10" font-weight="400" font-style="normal" 
 >dataout</text>
</g>

<g fill="none" stroke="#008000" stroke-opacity="1" stroke-width="1" stroke-linecap="square" stroke-linejoin="bevel" transform="matrix(1,0,0,1,0,0)"
font-family="Sans Serif" font-size="8" font-weight="400" font-style="normal" 
>
<text fill="#008000" fill-opacity="1" stroke="none" xml:space="preserve" x="303" y="58" font-family="Sans Serif" font-size="8" font-weight="400" font-style="normal" 
 >Decoded output</text>
</g>

<g fill="none" stroke="#000080" stroke-opacity="1" stroke-width="1" stroke-linecap="square" stroke-linejoin="bevel" transform="matrix(1,0,0,1,0,0)"
font-family="Sans Serif" font-size="10" font-weight="400" font-style="normal" 
>
<text fill="#000080" fill-opacity="1" stroke="none" xml:space="preserve" x="222" y="47" font-family="Sans Serif" font-size="10" font-weight="400" font-style="normal" 
 >std_logic_vector(7 downto 0)</text>
</g>

<g fill="none" stroke="#235676" stroke-opacity="1" stroke-width="2" stroke-linecap="round" stroke-linejoin="round" transform="matrix(1,0,0,1,0,0)"
font-family="Sans Serif" font-size="10" font-weight="400" font-style="normal" 
>
<path vector-effect="none" fill-rule="evenodd" d="M360,43 L360,53 L370,48 L360,43"/>
</g>

<g fill="#235676" fill-opacity="1" stroke="none" transform="matrix(1,0,0,1,0,0)"
font-family="Sans Serif" font-size="10" font-weight="400" font-style="normal" 
>
<path vector-effect="none" fill-rule="evenodd" d="M360,43 L360,53 L370,48 L360,43"/>
</g>

<g fill="none" stroke="#000000" stroke-opacity="1" stroke-width="1" stroke-linecap="square" stroke-linejoin="bevel" transform="matrix(1,0,0,1,0,0)"
font-family="Sans Serif" font-size="10" font-weight="400" font-style="normal" 
>
<text fill="#000000" fill-opacity="1" stroke="none" xml:space="preserve" x="375" y="75" font-family="Sans Serif" font-size="10" font-weight="400" font-style="normal" 
 >code_err</text>
</g>

<g fill="none" stroke="#008000" stroke-opacity="1" stroke-width="1" stroke-linecap="square" stroke-linejoin="bevel" transform="matrix(1,0,0,1,0,0)"
font-family="Sans Serif" font-size="8" font-weight="400" font-style="normal" 
>
<text fill="#008000" fill-opacity="1" stroke="none" xml:space="preserve" x="256" y="81" font-family="Sans Serif" font-size="8" font-weight="400" font-style="normal" 
 >Indication for illegal character</text>
</g>

<g fill="none" stroke="#000080" stroke-opacity="1" stroke-width="1" stroke-linecap="square" stroke-linejoin="bevel" transform="matrix(1,0,0,1,0,0)"
font-family="Sans Serif" font-size="10" font-weight="400" font-style="normal" 
>
<text fill="#000080" fill-opacity="1" stroke="none" xml:space="preserve" x="314" y="70" font-family="Sans Serif" font-size="10" font-weight="400" font-style="normal" 
 >std_logic</text>
</g>

<g fill="none" stroke="#235676" stroke-opacity="1" stroke-width="2" stroke-linecap="round" stroke-linejoin="round" transform="matrix(1,0,0,1,0,0)"
font-family="Sans Serif" font-size="10" font-weight="400" font-style="normal" 
>
<path vector-effect="none" fill-rule="evenodd" d="M360,66 L360,76 L370,71 L360,66"/>
</g>

<g fill="#235676" fill-opacity="1" stroke="none" transform="matrix(1,0,0,1,0,0)"
font-family="Sans Serif" font-size="10" font-weight="400" font-style="normal" 
>
<path vector-effect="none" fill-rule="evenodd" d="M360,66 L360,76 L370,71 L360,66"/>
</g>

<g fill="none" stroke="#000000" stroke-opacity="1" stroke-width="1" stroke-linecap="square" stroke-linejoin="bevel" transform="matrix(1,0,0,1,0,0)"
font-family="Sans Serif" font-size="10" font-weight="400" font-style="normal" 
>
<text fill="#000000" fill-opacity="1" stroke="none" xml:space="preserve" x="375" y="98" font-family="Sans Serif" font-size="10" font-weight="400" font-style="normal" 
 >disp_err</text>
</g>

<g fill="none" stroke="#008000" stroke-opacity="1" stroke-width="1" stroke-linecap="square" stroke-linejoin="bevel" transform="matrix(1,0,0,1,0,0)"
font-family="Sans Serif" font-size="8" font-weight="400" font-style="normal" 
>
<text fill="#008000" fill-opacity="1" stroke="none" xml:space="preserve" x="262" y="104" font-family="Sans Serif" font-size="8" font-weight="400" font-style="normal" 
 >Indication for disparity error</text>
</g>

<g fill="none" stroke="#000080" stroke-opacity="1" stroke-width="1" stroke-linecap="square" stroke-linejoin="bevel" transform="matrix(1,0,0,1,0,0)"
font-family="Sans Serif" font-size="10" font-weight="400" font-style="normal" 
>
<text fill="#000080" fill-opacity="1" stroke="none" xml:space="preserve" x="314" y="93" font-family="Sans Serif" font-size="10" font-weight="400" font-style="normal" 
 >std_logic</text>
</g>

<g fill="none" stroke="#235676" stroke-opacity="1" stroke-width="2" stroke-linecap="round" stroke-linejoin="round" transform="matrix(1,0,0,1,0,0)"
font-family="Sans Serif" font-size="10" font-weight="400" font-style="normal" 
>
<path vector-effect="none" fill-rule="evenodd" d="M360,89 L360,99 L370,94 L360,89"/>
</g>

<g fill="#235676" fill-opacity="1" stroke="none" transform="matrix(1,0,0,1,0,0)"
font-family="Sans Serif" font-size="10" font-weight="400" font-style="normal" 
>
<path vector-effect="none" fill-rule="evenodd" d="M360,89 L360,99 L370,94 L360,89"/>
</g>
</g>
</svg>
